# xmcd CD database file
#
# Track frame offsets:
#	150
#	12134
#	30123
#	48478
#	62224
#	80592
#	95765
#	111310
#	123005
#	141144
#	155374
#
# Disc length: 2238 seconds
#
# Revision: 0
# Processed by: cddbd v1.5.2PL0 Copyright (c) Steve Scherf et al.
# Submitted via: CDex 1.70beta3
#
DISCID=8608bc0b
DTITLE=Bud Freeman - Bud Freeman
DYEAR=1955
DGENRE=Jazz
TTITLE0=Newport-News
TTITLE1=At Sundown
TTITLE2=Exactly Like You
TTITLE3=Let's Do It
TTITLE4=But Not For Me
TTITLE5=Stop, Look And Listen
TTITLE6=Hanid
TTITLE7=Dave's Blues
TTITLE8=I Remember You
TTITLE9=Perdido
TTITLE10=You Took Advantage Of Me
EXTD=YEAR: 1955
EXTT0=
EXTT1=
EXTT2=
EXTT3=
EXTT4=
EXTT5=
EXTT6=
EXTT7=
EXTT8=
EXTT9=
EXTT10=
PLAYORDER=
